<svg width="25" height="25" viewBox="0 0 25 25" fill="none" xmlns="http://www.w3.org/2000/svg">
<path d="M7.25 0.0830078H17.75C21.75 0.0830078 25 3.32219 25 7.30888V17.7739C25 19.6904 24.2362 21.5283 22.8765 22.8834C21.5169 24.2385 19.6728 24.9998 17.75 24.9998H7.25C3.25 24.9998 0 21.7606 0 17.7739V7.30888C0 5.39246 0.763837 3.55453 2.12348 2.19942C3.48311 0.844303 5.32718 0.0830078 7.25 0.0830078ZM7 2.57469C5.80653 2.57469 4.66193 3.04722 3.81802 3.88832C2.97411 4.72943 2.5 5.87021 2.5 7.05971V18.0231C2.5 20.5023 4.5125 22.5081 7 22.5081H18C19.1935 22.5081 20.3381 22.0356 21.182 21.1945C22.0259 20.3534 22.5 19.2126 22.5 18.0231V7.05971C22.5 4.58049 20.4875 2.57469 18 2.57469H7ZM19.0625 4.44345C19.4769 4.44345 19.8743 4.60752 20.1674 4.89957C20.4604 5.19162 20.625 5.58773 20.625 6.00075C20.625 6.41377 20.4604 6.80988 20.1674 7.10193C19.8743 7.39398 19.4769 7.55805 19.0625 7.55805C18.6481 7.55805 18.2507 7.39398 17.9576 7.10193C17.6646 6.80988 17.5 6.41377 17.5 6.00075C17.5 5.58773 17.6646 5.19162 17.9576 4.89957C18.2507 4.60752 18.6481 4.44345 19.0625 4.44345ZM12.5 6.31221C14.1576 6.31221 15.7473 6.9685 16.9194 8.1367C18.0915 9.3049 18.75 10.8893 18.75 12.5414C18.75 14.1935 18.0915 15.7779 16.9194 16.9461C15.7473 18.1143 14.1576 18.7706 12.5 18.7706C10.8424 18.7706 9.25268 18.1143 8.08058 16.9461C6.90848 15.7779 6.25 14.1935 6.25 12.5414C6.25 10.8893 6.90848 9.3049 8.08058 8.1367C9.25268 6.9685 10.8424 6.31221 12.5 6.31221ZM12.5 8.80389C11.5054 8.80389 10.5516 9.19766 9.84835 9.89859C9.14509 10.5995 8.75 11.5502 8.75 12.5414C8.75 13.5327 9.14509 14.4833 9.84835 15.1842C10.5516 15.8852 11.5054 16.2789 12.5 16.2789C13.4946 16.2789 14.4484 15.8852 15.1517 15.1842C15.8549 14.4833 16.25 13.5327 16.25 12.5414C16.25 11.5502 15.8549 10.5995 15.1517 9.89859C14.4484 9.19766 13.4946 8.80389 12.5 8.80389Z" fill="#BF83FF"/>
</svg>
