<svg width="90" height="90" viewBox="0 0 90 90" fill="none" xmlns="http://www.w3.org/2000/svg">
<path d="M82.5 45C82.5 24.2888 65.7112 7.5 45 7.5C24.2888 7.5 7.5 24.2888 7.5 45C7.5 65.7112 24.2888 82.5 45 82.5" stroke="#35245B" stroke-width="5" stroke-linecap="round" stroke-linejoin="round"/>
<path d="M48.75 7.6875C48.75 7.6875 60 22.5 60 45M41.25 82.3125C41.25 82.3125 30 67.5 30 45C30 22.5 41.25 7.6875 41.25 7.6875M9.86255 58.125H45M9.86255 31.875H80.1376" stroke="#35245B" stroke-width="5" stroke-linecap="round" stroke-linejoin="round"/>
<path d="M82.0463 67.1887C83.8988 68.3287 83.7825 71.0999 81.8775 71.3174L72.2513 72.4087L67.935 81.0787C67.08 82.7999 64.4363 81.9562 63.9975 79.8262L59.2913 56.8912C58.92 55.0912 60.54 53.9587 62.1038 54.9224L82.0463 67.1887Z" stroke="#35245B" stroke-width="5"/>
</svg>
