<svg width="110" height="110" viewBox="0 0 110 110" fill="none" xmlns="http://www.w3.org/2000/svg">
<path d="M108.5 46.7501L97.539 24.8145C97.1861 24.1078 96.6974 23.4775 96.1008 22.9596C95.5043 22.4417 94.8116 22.0464 94.0623 21.7962C93.3129 21.546 92.5217 21.4459 91.7337 21.5015C90.9456 21.5571 90.1763 21.7674 89.4695 22.1204L78.4867 27.6118L55.6574 21.5704C55.2262 21.4587 54.7737 21.4587 54.3426 21.5704L31.5133 27.6118L20.5348 22.1204C19.8278 21.7668 19.0581 21.5559 18.2696 21.5C17.4811 21.444 16.6893 21.544 15.9395 21.7942C15.1897 22.0444 14.4965 22.4399 13.8996 22.9582C13.3027 23.4764 12.8139 24.1072 12.4609 24.8145L1.4996 46.7501C0.786465 48.1769 0.669217 49.8285 1.17364 51.3418C1.67806 52.8551 2.76284 54.106 4.18944 54.8196L15.8555 60.6548L39.7504 77.722C40.0094 77.9086 40.3008 78.0456 40.6098 78.1259L68.1097 85.0009C68.3191 85.0533 68.5342 85.0793 68.75 85.0782C69.4335 85.0776 70.0888 84.8056 70.5719 84.322L94.3379 60.5559L105.811 54.8196C107.237 54.106 108.322 52.8551 108.826 51.3418C109.331 49.8285 109.214 48.1769 108.5 46.7501ZM85.7269 61.8579L70.3441 49.5344C69.848 49.1374 69.2228 48.9375 68.5884 48.9732C67.954 49.0089 67.3551 49.2776 66.9066 49.7278C58.893 57.8016 49.934 56.7833 44.2234 53.1309C44.1111 53.0617 44.0163 52.9676 43.9463 52.8558C43.8762 52.744 43.8329 52.6176 43.8195 52.4864C43.8043 52.3661 43.816 52.2439 43.854 52.1287C43.8919 52.0135 43.955 51.9081 44.0387 51.8204L62.9191 33.5157H77.4683L89.6758 57.9305L85.7269 61.8579ZM6.06288 49.7106C5.99182 49.4952 6.00881 49.2604 6.11014 49.0575L17.0758 27.1177C17.1478 26.9746 17.2584 26.8546 17.3951 26.7711C17.5318 26.6875 17.689 26.6439 17.8492 26.645C17.9819 26.6451 18.1128 26.676 18.2316 26.7352L27.775 31.5048L16.0359 55.0001L6.49256 50.2305C6.38958 50.1773 6.29842 50.1038 6.22458 50.0145C6.15074 49.9251 6.09573 49.8218 6.06288 49.7106ZM67.9594 79.6469L42.35 73.2446L20.4789 57.6212L33.0172 32.5489L55 26.7309L61.3594 28.4153C60.873 28.5094 60.4248 28.7439 60.0703 29.0899L40.4336 48.1466C39.796 48.7837 39.3098 49.5561 39.0108 50.4065C38.7119 51.2568 38.6078 52.1635 38.7064 53.0595C38.805 53.9555 39.1037 54.8179 39.5804 55.5829C40.0571 56.3479 40.6997 56.9961 41.4605 57.4794C50.1488 63.0309 60.689 61.9868 68.8746 54.9485L82.0703 65.5274L67.9594 79.6469ZM103.937 49.7106C103.902 49.8179 103.846 49.9171 103.772 50.0026C103.698 50.0881 103.608 50.1583 103.507 50.2091L93.9641 55.0001L82.225 31.5048L91.7683 26.7352C91.8694 26.6845 91.9795 26.6542 92.0923 26.6461C92.2052 26.638 92.3185 26.6522 92.4258 26.688C92.533 26.7233 92.6322 26.7795 92.7177 26.8532C92.8033 26.9269 92.8734 27.0168 92.9242 27.1177L103.89 49.0575C103.991 49.2604 104.008 49.4952 103.937 49.7106ZM55.8121 93.4356C55.6466 94.0987 55.2247 94.669 54.6389 95.0211C54.0531 95.3732 53.3515 95.4784 52.6883 95.3134L34.7574 90.8317C34.4481 90.7524 34.1565 90.6154 33.898 90.4278L22.5672 82.3454C22.0105 81.9465 21.635 81.3429 21.5234 80.6672C21.4118 79.9915 21.5732 79.2992 21.9721 78.7425C22.3709 78.1858 22.9746 77.8103 23.6503 77.6987C24.3259 77.5871 25.0183 77.7485 25.575 78.1473L36.4848 85.9376L53.9344 90.2989C54.2637 90.3812 54.5735 90.5278 54.8461 90.7301C55.1187 90.9325 55.3486 91.1867 55.5226 91.4781C55.6967 91.7696 55.8115 92.0925 55.8604 92.4284C55.9094 92.7644 55.8915 93.1066 55.8078 93.4356H55.8121Z" fill="#35245B"/>
</svg>
