<svg width="110" height="110" viewBox="0 0 110 110" fill="none" xmlns="http://www.w3.org/2000/svg">
<path d="M27.504 10.8035C27.5039 10.2638 27.3556 9.73443 27.0752 9.27324C26.7948 8.81205 26.3932 8.43673 25.914 8.18825C25.4349 7.93976 24.8967 7.82766 24.3582 7.86417C23.8197 7.90068 23.3016 8.08441 22.8604 8.39529C16.4057 12.9407 12.5793 16.9085 10.4107 20.7428C8.19111 24.6714 7.86111 28.1953 7.86111 31.4285C7.86111 35.8678 9.96289 39.8121 13.2236 42.3264C11.8207 43.6433 10.7099 45.24 9.96289 47.0132C8.18325 51.0792 7.85718 56.0607 7.85718 60.056C7.85718 66.5892 8.89825 76.5953 10.8036 85.0064C11.7543 89.1982 12.9565 93.1699 14.4375 96.1635C15.1761 97.6524 16.06 99.0549 17.1404 100.124C18.2286 101.204 19.7332 102.143 21.619 102.143C23.5047 102.143 25.0054 101.204 26.0975 100.124C27.174 99.0549 28.0579 97.6485 28.7925 96.1596C30.2736 93.1699 31.4718 89.1982 32.4186 85.0024C34.32 76.5953 35.3572 66.5892 35.3572 60.056C35.3572 56.0607 35.039 51.0832 33.2633 47.0132C32.5167 45.2385 31.4058 43.6405 30.0025 42.3224C31.67 41.0379 33.0202 39.3876 33.9493 37.4989C34.8783 35.6102 35.3613 33.5334 35.3611 31.4285C35.3611 27.0049 33.1925 23.9367 31.4522 21.4735L30.91 20.6996C29.0872 18.0674 27.504 15.3999 27.504 10.8035ZM21.509 45.1785H21.7211C23.485 45.1982 24.6872 45.6578 25.5672 46.2942C26.4917 46.9568 27.2565 47.9835 27.8615 49.3742C29.1186 52.2539 29.4643 56.1864 29.4643 60.0599C29.4643 66.1374 28.4822 75.7035 26.675 83.7099C25.7636 87.7249 24.6872 91.1742 23.5125 93.5471C22.9233 94.7414 22.3811 95.5114 21.945 95.9396C21.8466 96.0428 21.7373 96.135 21.619 96.2146C21.4992 96.1353 21.3886 96.043 21.289 95.9396C20.8529 95.5074 20.3107 94.7414 19.7175 93.5432C18.539 91.1703 17.4625 87.721 16.5511 83.706C14.74 75.7035 13.75 66.1374 13.75 60.056C13.75 56.1903 14.0997 52.2578 15.3607 49.3782C15.9684 47.9901 16.7357 46.9634 17.6629 46.2982C18.5429 45.6578 19.749 45.1982 21.509 45.1785ZM21.7172 39.2857H21.5129C19.4454 39.2608 17.4711 38.4221 16.0179 36.9513C14.5647 35.4805 13.7499 33.4961 13.75 31.4285C13.75 28.6942 14.0211 26.3253 15.5375 23.646C16.7161 21.556 18.7354 19.136 22.2554 16.2367C23.1 19.5603 24.6361 21.9921 26.0582 24.0546L26.5297 24.7264C28.38 27.3899 29.4643 28.9535 29.4643 31.4285C29.4645 33.4941 28.6513 35.4767 27.2006 36.9472C25.75 38.4177 23.7826 39.2578 21.7172 39.2857ZM49.1072 17.6785C44.3536 17.6785 39.93 19.0849 36.2254 21.5049C35.6675 20.6092 35.1136 19.8392 34.65 19.1871L34.1393 18.4642C33.7153 17.8637 33.3156 17.2464 32.9411 16.6139C37.2454 13.7894 42.2146 12.1421 47.3537 11.836C52.4929 11.5298 57.6225 12.5756 62.2317 14.869C66.8408 17.1625 70.7686 20.6236 73.6238 24.9076C76.4789 29.1915 78.1618 34.1489 78.5047 39.2857H87.4108C91.3173 39.2857 95.0639 40.8372 97.8266 43.5992C100.589 46.3612 102.142 50.1073 102.143 54.0139V79.5496C102.143 81.4846 101.763 83.4007 101.023 85.1885C100.282 86.9764 99.1974 88.6009 97.8293 89.9693C96.4613 91.3377 94.837 92.4233 93.0494 93.1639C91.2618 93.9045 89.3457 94.2857 87.4108 94.2857H61.875C57.9678 94.2857 54.2206 92.7335 51.4578 89.9707C48.695 87.2079 47.1429 83.4607 47.1429 79.5535V70.6514C44.3075 70.4638 41.5142 69.867 38.8497 68.8796C39.0461 66.6796 39.1758 64.5817 39.2425 62.6646C41.6782 63.7882 44.3418 64.511 47.1429 64.7428V54.0178C47.1429 50.1106 48.695 46.3634 51.4578 43.6006C54.2206 40.8378 57.9678 39.2857 61.875 39.2857H72.6C72.1074 33.3941 69.4187 27.9029 65.0673 23.9007C60.7158 19.8985 55.0193 17.6777 49.1072 17.6785ZM78.3122 45.1785C77.4492 51.5786 74.5086 57.5183 69.9421 62.0848C65.3755 66.6513 59.4359 69.592 53.0358 70.4549V79.5535C53.0358 81.8978 53.967 84.1461 55.6247 85.8038C57.2824 87.4615 59.5307 88.3928 61.875 88.3928H87.4108C89.7551 88.3928 92.0034 87.4615 93.6611 85.8038C95.3188 84.1461 96.25 81.8978 96.25 79.5535V54.0178C96.25 51.6735 95.3188 49.4252 93.6611 47.7675C92.0034 46.1098 89.7551 45.1785 87.4108 45.1785H78.3122ZM72.3525 45.1785H61.875C59.5307 45.1785 57.2824 46.1098 55.6247 47.7675C53.967 49.4252 53.0358 51.6735 53.0358 54.0178V64.4953C57.8616 63.6773 62.3136 61.3785 65.7746 57.9174C69.2357 54.4563 71.5345 50.0044 72.3525 45.1785Z" fill="#35245B"/>
</svg>
