<svg width="90" height="90" viewBox="0 0 90 90" fill="none" xmlns="http://www.w3.org/2000/svg">
<path d="M22.9866 70.0094C24.2037 70.0094 25.2236 69.5962 26.0462 68.7699C26.8651 67.9473 27.2746 66.9256 27.2746 65.7047C27.2746 64.4838 26.8614 63.4639 26.0351 62.645C25.2087 61.8261 24.187 61.4167 22.9698 61.4167C21.7527 61.4167 20.7328 61.8298 19.9102 62.6562C19.0876 63.4825 18.6781 64.5042 18.6818 65.7214C18.6856 66.9386 19.0987 67.9566 19.9213 68.7755C20.7439 69.5944 21.7657 70.0094 22.9866 70.0094ZM22.9866 48.9602C24.2037 48.9602 25.2236 48.5489 26.0462 47.7263C26.8651 46.9 27.2746 45.8764 27.2746 44.6555C27.2746 43.4346 26.8614 42.4166 26.0351 41.6014C25.2087 40.7862 24.187 40.3768 22.9698 40.3731C21.7527 40.3694 20.7328 40.7807 19.9102 41.607C19.0876 42.4333 18.6781 43.4569 18.6818 44.6778C18.6856 45.8987 19.0987 46.9167 19.9213 47.7319C20.7439 48.5471 21.7657 48.9565 22.9866 48.9602ZM22.9866 27.9167C24.2037 27.9167 25.2236 27.5054 26.0462 26.6828C26.8651 25.8564 27.2746 24.8328 27.2746 23.6119C27.2746 22.391 26.8614 21.373 26.0351 20.5578C25.2087 19.7427 24.187 19.3332 22.9698 19.3295C21.7527 19.3258 20.7328 19.7371 19.9102 20.5634C19.0913 21.3897 18.6818 22.4115 18.6818 23.6287C18.6818 24.8458 19.095 25.8657 19.9213 26.6883C20.7477 27.5109 21.7694 27.9204 22.9866 27.9167ZM40.1553 68.5075H70.2216V62.9242H40.1553V68.5075ZM40.1553 47.4583H70.2216V41.875H40.1553V47.4583ZM40.1553 26.4092H70.2216V20.8258H40.1553V26.4092ZM9.02267 89.3333C6.45061 89.3333 4.30475 88.4735 2.58508 86.7538C0.865416 85.0342 0.00372222 82.8864 0 80.3107V9.02267C0 6.45061 0.861693 4.30475 2.58508 2.58508C4.30847 0.865416 6.45433 0.00372222 9.02267 0H80.3162C82.8846 0 85.0304 0.861693 86.7538 2.58508C88.4772 4.30847 89.3371 6.45433 89.3333 9.02267V80.3162C89.3333 82.8846 88.4735 85.0304 86.7538 86.7538C85.0342 88.4772 82.8864 89.3371 80.3107 89.3333H9.02267ZM9.02267 83.75H80.3162C81.1724 83.75 81.9596 83.3927 82.678 82.678C83.3964 81.9633 83.7537 81.1742 83.75 80.3107V9.02267C83.75 8.16283 83.3927 7.37372 82.678 6.65533C81.9633 5.93694 81.1742 5.57961 80.3107 5.58333H9.02267C8.16283 5.58333 7.37372 5.94067 6.65533 6.65533C5.93694 7.37 5.57961 8.15911 5.58333 9.02267V80.3162C5.58333 81.1724 5.94067 81.9596 6.65533 82.678C7.37 83.3964 8.15725 83.7537 9.01708 83.75" fill="#35245B"/>
</svg>
